<svg xmlns="http://www.w3.org/2000/svg" width="202" height="127" fill="none"><path fill="#fff" fill-rule="evenodd" d="M4.131 40.891 99.193.585a4.82 4.82 0 0 1 3.755 0l95.475 40.481c1.791.757 2.862 2.464 2.863 4.259h.02v76.102c0 2.573-2.132 4.659-4.761 4.659H5.597c-2.629 0-4.76-2.086-4.76-4.659V45.325c0-2.073 1.383-3.829 3.294-4.434M101.071 9.9 10.358 48.36v68.407h181.427V48.361z" clip-rule="evenodd"/><path fill="#E30016" fill-rule="evenodd" d="m5.597 45.325 95.475-40.481 95.474 40.48v76.103H5.597z" clip-rule="evenodd"/><path fill="#fff" fill-rule="evenodd" d="m34.233 87.7 12.974-17.974h-9.843L28.137 83.93c-.895 1.584-1.845 3.168-2.74 4.807h-.167V69.726h-8.221v42.011h8.22V97.369l3.188-4.206 9.955 18.574h9.45zm40.433 5.68c0-6.664-2.63-12.673-12.304-12.673-4.866 0-8.724 1.366-10.794 2.568l1.566 5.244c2.014-1.202 4.81-2.076 7.662-2.076 4.53 0 5.592 2.294 5.592 5.3-9.898 0-17 3.66-17 11.472 0 4.916 3.579 9.123 9.34 9.123 3.466 0 6.486-1.365 8.275-3.77h.169l.503 3.169h7.437c-.335-1.858-.447-4.534-.447-7.211zm-8.054 7.923c0 3.878-3.244 5.244-5.2 5.244-2.07 0-3.916-1.257-3.916-4.152 0-4.425 4.642-5.462 9.116-5.462zm58.552-8.03c0-8.797-4.194-12.566-9.619-12.566-3.467 0-6.655 1.366-9.227 5.08h-.112c-1.23-3.113-4.138-5.08-7.941-5.08-4.641 0-7.382 2.512-8.836 4.698h-.167l-.391-4.097h-7.048c.112 2.685.224 5.581.224 9.142v21.287h8.109V93.4c0-4.062 2.684-6.137 4.977-6.137 3.244 0 4.418 2.895 4.418 6.5v17.974h8.109V93.272c0-4.262 2.572-6.01 4.865-6.01 3.3 0 4.53 2.896 4.53 7.266v17.209h8.109zm27.348 11.635c-1.342.601-2.965.983-5.034.983-4.753 0-8.276-3.442-8.276-9.396 0-5.354 3.02-9.45 8.221-9.45 2.293 0 3.803.49 4.866.982l1.342-6.173c-1.342-.546-3.803-1.147-6.489-1.147-10.29 0-16.329 6.992-16.329 16.116 0 9.67 5.928 15.461 15.044 15.461 3.299 0 6.152-.656 7.55-1.311zm19.181-24.255c-8.443 0-14.763 5.79-14.763 16.006 0 9.888 6.04 15.679 14.429 15.679 6.934 0 14.539-4.48 14.539-16.061 0-9.233-5.48-15.624-14.205-15.624m5.817 15.787c0 5.409-2.125 9.944-6.039 9.944-4.028 0-6.152-4.48-6.152-9.889 0-4.644 1.621-9.888 6.207-9.888 4.25 0 5.984 5.08 5.984 9.833M177.108 61.095h-1.6v3.35h1.651c.932 0 1.605-.128 2.007-.38.407-.256.61-.662.61-1.228q-.001-.919-.631-1.333-.634-.41-2.037-.41m.348-1.241q2.158-.001 3.243.7 1.085.692 1.084 2.075 0 1.081-.618 1.796-.621.713-1.749.93l2.316 4.626h-2.193l-2.109-4.319h-1.922v4.319h-1.956V59.854zm7.732 5.32q.001-1.62-.576-3.037a7.3 7.3 0 0 0-1.686-2.49 7.8 7.8 0 0 0-2.591-1.713 8.1 8.1 0 0 0-3.087-.587q-1.613 0-3.044.567a7.4 7.4 0 0 0-2.499 1.634 8.3 8.3 0 0 0-1.796 2.589 7.4 7.4 0 0 0-.626 2.966q-.001 1.514.601 2.909.604 1.401 1.737 2.51a7.8 7.8 0 0 0 2.565 1.713c.962.402 1.961.6 2.985.6q1.619-.001 3.067-.58a8.5 8.5 0 0 0 2.637-1.696 7.337 7.337 0 0 0 2.313-5.385m-7.979-9.018c1.25 0 2.436.227 3.549.678a9 9 0 0 1 2.981 1.977 8.9 8.9 0 0 1 1.962 2.883 8.7 8.7 0 0 1 .681 3.397q0 1.83-.681 3.438a8.5 8.5 0 0 1-1.987 2.841 9.6 9.6 0 0 1-3.036 1.97 9 9 0 0 1-3.469.686 9 9 0 0 1-3.48-.686 9.1 9.1 0 0 1-2.972-1.994 9 9 0 0 1-1.987-2.892 8.55 8.55 0 0 1-.681-3.363q-.001-1.769.715-3.425a9.3 9.3 0 0 1 2.054-2.975 8.4 8.4 0 0 1 2.871-1.894 9.4 9.4 0 0 1 3.48-.64M61.549 66.615c.316 1.217-.203 2.101-1.59 2.462-1.216.316-2.029-.056-2.465.058-.311.08-.484.442-.403.754.219.842 2.17.668 3.168.409 1.963-.51 3.105-2.073 2.57-4.132-.708-2.73-3.288-2.093-4.986-2.484-.407-.094-1.042-.295-1.31-1.325-.351-1.357.498-1.994 1.496-2.254 1.06-.275 1.578.056 2.061-.069.39-.102.551-.443.47-.755-.227-.874-2.161-.57-2.94-.368-1.933.502-2.85 1.973-2.36 3.86.717 2.761 3.309 2.104 4.992 2.5.442.101 1.034.33 1.297 1.344m3.82 1.861a.657.657 0 0 0 .757.51.66.66 0 0 0 .508-.758L64.64 58.027a.657.657 0 0 0-.755-.509.657.657 0 0 0-.51.757zm10.214-1.085a.695.695 0 0 0 .591-.81L74.588 56.39c-.055-.35-.372-.61-.722-.556a.675.675 0 0 0-.552.755l1.277 8.201-5.901-7.758a.77.77 0 0 0-.728-.278c-.397.062-.637.41-.575.808l1.587 10.192c.054.35.372.61.722.556a.674.674 0 0 0 .55-.754l-1.276-8.202 5.904 7.774a.78.78 0 0 0 .709.264m2.218-4.45c.227 2.472 1.514 3.989 3.983 3.761 1.46-.134 2.781-.887 2.712-1.641a.564.564 0 0 0-.629-.509c-.224.021-.294.14-.552.326-.45.382-.933.588-1.558.645-1.812.167-2.508-.902-2.674-2.7l-.314-3.435c-.166-1.797.325-2.975 2.137-3.142a2.66 2.66 0 0 1 1.649.35c.271.137.378.241.602.22a.564.564 0 0 0 .526-.615c-.069-.754-1.506-1.253-2.965-1.119-2.47.227-3.46 1.953-3.233 4.425zm14.412 2.17c-.021-.322-.345-.575-.682-.553l-3.985.264-.252-3.811 3.519-.234a.62.62 0 0 0 .585-.668.64.64 0 0 0-.668-.586l-3.52.233-.248-3.763 3.825-.253c.353-.023.625-.3.602-.654a.647.647 0 0 0-.685-.6l-4.355.288c-.434.028-.73.435-.705.805l.65 9.827c.038.579.531.724 1.062.689l4.258-.282a.65.65 0 0 0 .599-.702m29.11.712a.656.656 0 0 0 .592.693.657.657 0 0 0 .692-.594l.793-10.3a.69.69 0 0 0-.638-.745.68.68 0 0 0-.394.083l-3.318 1.78a.66.66 0 0 0-.333.541c-.022.289.247.569.52.59.225.017.495-.14.732-.267l2.072-1.117zm10.294-3.464c-.28 2.222-.973 3.987-2.922 3.74-.511-.064-.958-.25-1.296-.407a1.2 1.2 0 0 0-.342-.124c-.319-.04-.613.231-.649.52-.097.766 1.79 1.119 2.35 1.189 2.396.303 3.77-1.587 4.27-5.553.424-3.357-.093-5.697-2.713-6.028-2.269-.286-3.471 1.268-3.719 3.234-.301 2.383 1.012 3.686 2.77 3.908.719.09 1.558.002 2.251-.48m.204-1.356c-.496.458-1.359.739-2.238.627-1.214-.153-1.923-.973-1.727-2.525.155-1.23.815-2.35 2.253-2.168 1.614.204 2.002 1.764 1.76 3.683zm7.988 2.705c-.389 2.206-1.168 3.934-3.103 3.591-.508-.09-.945-.298-1.274-.47a1.2 1.2 0 0 0-.335-.142c-.317-.056-.624.201-.675.487-.134.761 1.733 1.206 2.288 1.305 2.379.42 3.845-1.399 4.54-5.334.589-3.334.189-5.696-2.412-6.156-2.252-.399-3.529 1.094-3.874 3.046-.418 2.365.829 3.73 2.573 4.04.714.126 1.556.078 2.272-.367m.271-1.344c-.518.433-1.394.67-2.266.516-1.206-.214-1.872-1.068-1.6-2.607.216-1.223.931-2.307 2.358-2.055 1.602.284 1.912 1.86 1.575 3.765zm8.897 5.404c.338-1.43-.3-2.51-1.244-3.347 1.097-.373 1.854-1.055 2.107-2.124.386-1.634-.691-3.098-2.415-3.506-1.677-.397-3.328.356-3.736 2.084-.282 1.194.184 2.166.934 2.91-1.218.324-2.273 1.005-2.603 2.403-.434 1.838.728 3.504 2.733 3.978 2.038.483 3.786-.544 4.224-2.398m-.359-5.694c-.238 1.007-1.219 1.52-2.274 1.502-.959-.426-1.693-1.312-1.44-2.38.242-1.023 1.223-1.536 2.273-1.288 1.035.245 1.683 1.144 1.441 2.166m-.875 5.386c-.279 1.179-1.418 1.87-2.719 1.562-1.269-.3-2.033-1.41-1.751-2.604s1.443-1.767 2.725-1.729c1.108.494 2.049 1.482 1.745 2.77m-46.869-16.577c-17.606.18-33.785 2.86-46.747 7.257l-.239-.98c13.143-4.446 29.54-7.143 47.358-7.288zm6.583-.958c16.591.42 31.83 3.053 44.19 7.235l-.239.98c-12.182-4.133-27.207-6.75-43.586-7.198zM95.219 68.702c-14.035.47-26.61 2.235-36.096 4.847a86 86 0 0 0-1.157.327l-.238-.976a87 87 0 0 1 1.132-.32c9.636-2.653 22.415-4.438 36.656-4.895zm18.016-.89c12.947.606 24.535 2.317 33.441 4.769q.573.158 1.131.32l-.238.975q-.57-.166-1.156-.327c-8.759-2.412-20.149-4.1-32.89-4.716zm-8.874-19.218 2.761 7.693 8.263.323-6.457 5.005 2.247 7.965-6.751-4.6-6.875 4.6 2.284-7.847-6.495-5.123 8.163-.251z" clip-rule="evenodd"/></svg>